/* XPM */
static char *_0bf9568ca5c41079690f294b8dc6de6IpzInlmXZ9P6GQ4o[] = {
/* columns rows colors chars-per-pixel */
"64 64 118 2 ",
"   c #251F2B",
".  c #26202D",
"X  c #2A2334",
"o  c #2E273A",
"O  c #2F293B",
"+  c #30273E",
"@  c #312C3C",
"#  c #332B43",
"$  c #362E49",
"%  c #382F4E",
"&  c #353142",
"*  c #393946",
"=  c #37304A",
"-  c #39314F",
";  c #363848",
":  c #3B3B4E",
">  c #3B3451",
",  c #3E3954",
"<  c #403C56",
"1  c #413E59",
"2  c #3E4350",
"3  c #434455",
"4  c #45445C",
"5  c #48475E",
"6  c #47485E",
"7  c #484A5E",
"8  c #444761",
"9  c #464A62",
"0  c #4B4E62",
"q  c #4D5264",
"w  c #4E566A",
"e  c #4F586B",
"r  c #515667",
"t  c #515768",
"y  c #525A6A",
"u  c #54606F",
"i  c #556372",
"p  c #596674",
"a  c #5B6A77",
"s  c #536779",
"d  c #556A7A",
"f  c #5B6D7A",
"g  c #5A717F",
"h  c #606F7A",
"j  c #62717C",
"k  c #577181",
"l  c #5A7381",
"z  c #5D7A87",
"x  c #5E7D89",
"c  c #627681",
"v  c #637882",
"b  c #6A7F87",
"n  c #607D8A",
"m  c #6C7F88",
"M  c #5F828D",
"N  c #5F8490",
"B  c #62838E",
"V  c #69868B",
"C  c #6F898F",
"Z  c #618691",
"A  c #6C8791",
"S  c #648A94",
"D  c #698D96",
"F  c #688E97",
"G  c #698F98",
"H  c #728F92",
"J  c #6A9098",
"K  c #6B929A",
"L  c #6F969C",
"P  c #729197",
"I  c #729297",
"U  c #739298",
"Y  c #72959B",
"T  c #71959C",
"R  c #73999E",
"E  c #79999C",
"W  c #7A9A9D",
"Q  c #7B9D9F",
"!  c #769DA1",
"~  c #7A9EA2",
"^  c #7D9FA1",
"/  c #79A1A4",
"(  c #7BA3A5",
")  c #7CA0A4",
"_  c #7CA2A5",
"`  c #7CA4A6",
"'  c #7EA6A8",
"]  c #7FA8A9",
"[  c #83A3A4",
"{  c #80A7A8",
"}  c #8CA7A8",
"|  c #81A8A9",
" . c #81A9AA",
".. c #84AAAB",
"X. c #84ACAC",
"o. c #85ADAD",
"O. c #89AEAE",
"+. c #87B0AE",
"@. c #88B0AF",
"#. c #8BB0AF",
"$. c #8EAFB0",
"%. c #8AB3B1",
"&. c #8DB4B2",
"*. c #8FB7B4",
"=. c #91B6B4",
"-. c #90B7B4",
";. c #95B7B5",
":. c #93B9B6",
">. c #9DB8B5",
",. c #97BCB8",
"<. c #9BBEBA",
"1. c #9FC1BC",
"2. c #A1C3BE",
"3. c #A1C4BE",
"4. c #A5C6C1",
"5. c #A7C8C2",
"6. c #AACAC4",
"7. c #B3D2C9",
/* pixels */
"r i z x i t t t t t t t t t t i x Z Z J ` @.@.@.@.` J Z Z x i t r t t t t t t i x J ` o.+.` J Z Z Z Z x i t t t t t t t t t r r ",
"i f x x i t t t t t t t t t t i l M B G ! ` ` ` ` ! F B x g u t i i i i y r q t g A _ +.+.` J Z Z B x g i t t t t t t t u p a f ",
"z x Z x i t t t t t t t t t t y i f M S G J J J J F S x f y t u g x x l i q 4 5 e c Q @.@.` J Z Z x f u t t r r r r r y g B T W ",
"Z Z x l i r q 0 0 0 0 q t t t t r y d l z x B Z Z Z Z x d i i f x Z M g y 5 , , 0 f W @.@.` J Z Z x d i i p a f f f f c A Y ( ] ",
"S x f i y q 4 , < , , 4 q t t t t q 9 9 y f x Z Z Z Z B x z z x Z M f y 5 , > , 0 f W @.@.` J Z Z B x z z B I W W W W ^ ` ( L J ",
"x l i r q 6 , - - > , 4 q t i i i e 4 < 5 e d l z x Z Z Z Z Z Z x l i 0 , - - , 0 f W @.+.` F N Z Z Z Z F R  .%.%.o. .' ' ! F N ",
"i i y q 4 , > - - , 5 q r u g x x f e 5 < < 4 9 y f M Z Z Z Z x f i y 0 < - - , 0 f W @.+._ F M N Z Z F !  .o.@.@. .R J J F Z Z ",
"t r q 5 - = , < , 5 y p a c S J J A v i 5 , - , 5 e d l z x x l i r q 5 - $ % , 0 f W %.-.@._ Y J F F Y  .o. .` ` ! F M x z z z ",
"t q 5 - O # 3 q 0 t g B I Q _ ` ' ` ^ C i 5 , - , < 4 9 y p i i y q 4 - + o $ , 0 f W *.3.4.2.;...( ( ' o. .Y G J F S x f i i i ",
"t 0 , + X @ 7 t t p B ! @.:.:.&. .' ] R c t 5 , , , - , 5 q t t q 5 - # X X = 4 q f W *.2.6.7.6.<.:.:.&. .! F M x z x l i r t t ",
"y 7 & X . @ 7 t t a I @.1.6.6.<.~ J J F B g y 0 0 5 , - , 4 q w 5 - + X . O 3 q r f W %.&.<.6.7.6.6.6.<.~ F Z x f i i i t t t t ",
"q 3 @     @ 3 w y c Q -.3.5.2.-.L M x z x l i y i y 5 , > , 4 3 - # X . X & 7 t t f W +.o.&.1.4.2.1.2.O.A z z g u r t t t t t t ",
"< - o . . X - 9 d S _ %.-.@._ T S x d i i i t i l l y 5 , = # @ X X . X # , q t t f W @.o.@.&.O._ R R A f i i u t t t t t t t t ",
"> $ X . X o # 4 z R  .o.o._ F M x g u r r t u f M x p 0 , # X   . . X o $ , 6 q r f T  .o.+.o._ F M N x d i i i t t t t t t q q ",
"> $ X X # # X 2 V  .o.o.o.` J x d y t r r u g M Z x p 7 & X . . . X # $ - > , 4 q p B R  .@.o.` F N N M x z z l i t t t t q 4 , ",
"< , & & , - o 3 H &.-.&.@.` G x d i i i i f x Z Z z y 3 @ X X X X + - 1 < , > , 5 y f B R  .o.` J Z Z Z Z Z S x i t t t w 6 , - ",
"q q 7 7 q 4 - 7 H :.3.2.&.( F M x z z z z x B Z Z l 9 , $ $ $ $ $ - 5 q q 6 , > , 5 t f B R  .` J Z Z Z Z Z S x i t t q 4 , > - ",
"t t t y t 0 , 9 A @.1.4.<.@._ Y J J J F S Z Z Z M d 4 > , < < < < 4 q t t q < - - , 0 i g B ! ! F Z Z B x x x g y 0 q 6 , > , < ",
"t t t t t 0 , 8 z ! O.<.4.5.2.:.o.` ' ! F Z Z M f e , , 6 q q 0 0 q r t t 0 , - - < 0 y u f Z J S Z Z x f i i y 5 , < , > , 6 q ",
"t t t t t 0 , 4 k F ! ..:.2.2.:.o.` ` ! F B x g t 6 1 4 q t t t i i i i i t 5 , > , 6 q r i l z z x x l i r q 5 , - - > , 4 q y ",
"t t t t t 0 , 4 k S F J Y R R Y J J J F S x f t 4 < 6 q r t r u l z z z z g t 5 , > , 4 q y i i i i i i y q 4 , > - - , 6 q t t ",
"t t t t t 0 , 4 i z M Z Z N Z Z Z Z Z B x g t 6 < 4 q y i p a c S J J J J Z g t 5 , > , 3 7 r t t t t t t q 4 , , , , 4 q t t t ",
"t t t t t 0 , > 1 w z Z Z Z Z Z Z Z Z n f t 4 < 6 q r i g B I Q _ ` ` ' ' ! Z g t 5 , $ @ * 7 t t t t t t r q 0 0 0 0 q r t t r ",
"f f h f a e 1 % % 1 i l z z l k k l z g y 6 < 4 q t t p B ! @.:.%.o. .` ` ! J x f y 5 - O @ 3 7 0 q q q r t t t i p f f f f f f ",
"W W W U B d 4 % % > 1 9 y y 9 8 4 9 y y 5 1 6 q t t r a I @.1.3.-.{ Y J J F S Z M l y 5 - # @ & , < < 4 q t r y g B T W W W W W ",
"@.+. .~ S d 4 > , , , 4 q 0 , % % , 6 6 , , q t t t y c [ <.4.1.O.! F Z Z B x x x l y 6 , $ o o # $ % 1 e a j m T _ &.:.:.-.%.+.",
"@. .R Z g e < , 5 0 0 q r 0 , - - > , , > , q t t u g F ;.5.<.O.R F Z Z Z x f i p y 5 , > - $ # o o $ 4 s A } >.<.2.5.6.6.3.-.o.",
"` ! F z i 0 4 5 y p p i y 0 < - $ $ - > - < 0 t t i B _ 3.5.@.! F Z Z B x l i r q 5 , - - > > $ O o $ 9 z ( <.6.6.4.2.<.<.:...` ",
"J F Z z i q 0 t g x x l i 0 < $ o O $ > - , 0 t r a I &.5.2._ S Z Z Z x f i t q 4 , > - - > > - $ $ $ 9 A o.&.:.:.%._ R R Y J G ",
"Z Z Z x f i i f x Z Z x i q 4 = X X # - , 4 q t u c Q :.3.:.Y M Z Z Z z i r t q 4 , , < < < < , > > , t U %.+.o.' ! F M M N N Z ",
"Z Z Z B x z z x B Z Z x i r q 3 @ . X & 4 q t i g S _ %.-...J N Z Z Z z i r r r q 0 0 0 0 q q 6 , , 4 p W @.@.' Y F Z Z Z Z Z Z ",
"Z Z Z Z Z Z Z Z Z Z Z z i t t 7 @     @ 3 q t i z J ` o.o.` F Z Z Z Z B g f f a p i p i y t q 6 1 5 i b _ o. .! F Z Z Z Z Z F J ",
"Z Z Z Z Z Z Z Z Z Z Z z i t t 7 @     X - 4 q i z J ` o.o.` F N Z Z Z S T W W T B x x l i q 4 < 6 i C _ o. .R F Z Z Z Z N F ! ' ",
"Z Z F J J F Z Z Z Z Z x f i y 7 & X . X $ , 5 y z J ` o.o.' Y F Z Z F R  .o. .! G Z M g y 6 < 4 e v ^ o. .! F M Z Z F J J L ( ` ",
"Z F ! ` ` ! F Z Z Z Z B x l i 0 , # X X $ > , 9 l J ` o.o. .' ! F F !  .o. .R F S M f t 5 1 6 t g A `  .R S Z N N F ! ` ` ( L J ",
"Z J ` &.:.&._ T S Z Z Z Z x p 0 < $ o + - < , 9 l J ` %.&.:.:.O.R Y  .o. .! F M x l i 0 , , 0 p x J ' { Y F F F F R  .o. .! F N ",
"Z J ` :.3.5.2.&.J M N Z Z x p 0 < - $ - 5 0 0 y z J ` -.2.5.5.1.O.{ o. .R F Z x f i y 0 , , 0 i z J ` o.` ( _ ` `  .o. .R F Z Z ",
"Z S T [ ;.3.5.<.~ F J F S z y 5 , - - < q t t i g B R O.1.6.6.1.O.` ` ! F Z Z x i r q 6 , , 0 i z J ` %.-.:.:.-.%.o. .! F Z Z Z ",
"Z B g v F _ &.&. .` ` ~ J l 9 , > - - < q t t t i f B ! @.:.:.O.R G G F Z Z Z x i q 4 , > , 0 i z J ` -.2.5.5.2.-.{ Y F Z Z Z Z ",
"x g y y g B R ` ' ' ' ! Z d 4 % - > , 4 q t t t r y g B I ~ _ ! F Z Z Z Z Z x l i 0 , > , 4 q i z F ! O.1.6.6.1.O.! F Z Z Z Z Z ",
"i i y t u f B J J J J Z g e < % - , 6 q t t t t t t y i a c S F S Z Z Z Z x f i y 0 , , 6 q r i x S F R O.:.:.O.R F Z Z Z Z Z Z ",
"t t t t t u g z z z z l i q 4 , > , 0 t t t i i i i i y t y g z x x x x x l i t t 0 , < q t t i l x M F ! ` ` ! F Z Z Z Z B x z ",
"t t t t t t i i i i i i t r q 5 , , 0 t r y g z x z z g y t u i i i i i i i t t t 0 < < q t t t i f x S F J J F Z Z Z Z Z x f i ",
"t t t t t t t t t t t t t t t w 9 9 p f f c S J J J J Z f u t r q 0 0 0 0 q t t t 0 : : 0 t t t t i l x z x M Z Z B x z x g u r ",
"t t t t t t t t t t t t t t t y d z I W W Q _ ` ` ' ] ! Z g u 0 4 , , , , 4 q t t 7 & & 7 t t t t y i i i f x Z Z x f i i i t t ",
"t t t t t t q 0 0 q r t t t u f Z R  .+.+.o.o.o.@.o. .! G x f y 5 , > - - , 6 w t 7 @ O 3 q t t t t t t r i l x x l i t t t t t ",
"t t t t t q 4 , , 4 q t t i g B !  .o.o.o.o.o.o.@. .R F Z Z M g y 6 , - - > , 5 w 7 @ X - 5 w y t t t t t t i p p i y t t t t t ",
"t t t t q 6 , > , 4 q t t p B R ] @.&.-.-.&.@.o.{ ! F Z Z Z M l y 6 , - - - - , 6 3 @ X # - 6 q q q t t t t q 0 0 0 0 q q q q q ",
"t t y w 4 , > , 5 q t t t a I ] o.&.1.5.5.2.&.' Y F Z Z Z M f y 5 , > > - - - > , - o . X + - < < 4 q t t q 4 , , < < < < < < < ",
"q q q 6 , > , 4 q t t t u v [ :.-.<.6.7.6.1.O.! F Z Z Z x g t 5 , - - > , < < , > $ X . . X # $ $ - 5 q q 6 , - - - - - - - - - ",
"< < < , > , 6 q t t t u g F ;.5.5.6.7.6.<.O.R F Z Z Z x f t 5 , > - % , 5 q q 6 , $ X . . . X X X + - < < , > - - - - - - - - > ",
"- - - - - < q t t t r i B _ 2.7.7.7.6.<.o.! F Z Z Z x l i q 4 , , < 4 9 y i y q 4 : & @ X X . . X o $ % % > , , , , , , , , > - ",
"- - - - - < q t t t r a I %.5.7.7.6.<.o.R F Z Z Z x f i t r q 0 0 e d l z l i r q 0 7 3 - # X X + $ % % % , 5 0 0 0 0 0 0 5 , % ",
"< < < , > , 6 q t t u c Q -.2.5.5.1.&.` F M x z z g u r r t i p a c A J S x i t t t t q 4 , ; : 6 q q 0 0 t p h f f h j j p q 4 ",
"0 0 q 6 , > , 4 q i l A _ %.&.-.-.&.@.` J x d i i u t r r y g B T ^ ` ( J z i t t t t w q w i l A U I I I U W W W W W Q Q I n k ",
"p i y q 4 , > , 5 y z J !  . .o.o.o.{ ! F x d i i i i p a c S R  .o. .! G z i r q q y p a c A !  .@.@.+.+.+.+.+.@.o. .' ' ! G Z ",
"x l i r q 6 , > , 9 l S F Y ' o.o.' Y F Z B x z z z z B I Q _  .o. .R F S x p q 1 9 d B T ~ _  .o.o.o.o.o.o.o.+.@. .R J J F S Z ",
"S M f u w 6 , - % 4 d x M F ` o.o.` F N Z Z Z Z Z Z F R  .@.@.o. .! F M x g y 9 4 w n R  .+.o.@.&.-.-.-.:.&.@.o.{ ! F N Z Z Z Z ",
"Z Z B d 0 , > - - < e f x J ` o.o._ F N Z Z Z Z Z F !  .o.@.@. .R F Z x f t 5 5 i n R  .o.o.o.&.1.5.5.5.5.3.-.' Y F Z Z Z Z Z Z ",
"l l l i 4 % - > , 4 q i z J ` %.-.O.R F Z Z F G F Y { @.o.o. .! F M x g t 5 , 4 k J ' %.&.-.-.<.6.6.2.<.<.:.o.! F Z Z B x z x x ",
"8 8 8 4 , - - , 6 q r i z J ` -.3.1.O.R S S ! ` ` ' o.o.@. .Y F Z x f t 5 , - 4 k J ` &.2.5.5.6.7.2. .R R Y J F Z Z Z x f i i i ",
"- - - - - > , 4 q t t i g B R O.1.4.<.O.~ ~  .o.o.o.o.o.{ ! F M x g t 5 , % % 4 k J ` &.2.5.5.4.2.$.J M M N Z M x z x g t 0 0 0 ",
"- - - - - , 6 q t t t t u f B R o.,.3.4.2.,.&.o.o.o.o.' Y F Z x f t 5 , > - - 4 k J ` @.&.:.:.O.~ J S Z Z Z Z x f i i t 5 , , , ",
"> > > > - < q t t t t t t i z F ( -.5.7.7.5.-.o.o.o.o.` F N Z z i 0 , - - - - 4 k J ` o.o.o.o.( F M Z Z Z Z Z z i r t 0 , - - - "
};
