/* XPM */
static char *_084ebd148fa4f9588411c32889c235962vVWk1xVx48SrwT[] = {
/* columns rows colors chars-per-pixel */
"64 64 97 2 ",
"   c #070407",
".  c #070608",
"X  c #080709",
"o  c #0A090C",
"O  c #0D0D14",
"+  c #100F17",
"@  c #110F19",
"#  c #0F1017",
"$  c #0F1119",
"%  c #12121C",
"&  c #151522",
"*  c #191727",
"=  c #151925",
"-  c #191827",
";  c #191729",
":  c #171C2A",
">  c #1A1A2B",
",  c #1C1E31",
"<  c #1C2133",
"1  c #1C2930",
"2  c #1F253A",
"3  c #1F293D",
"4  c #202F34",
"5  c #20263B",
"6  c #20293E",
"7  c #23303C",
"8  c #1F2A40",
"9  c #1F3349",
"0  c #212D42",
"q  c #273541",
"w  c #233047",
"e  c #233249",
"r  c #22334A",
"t  c #24364F",
"y  c #2A3749",
"u  c #22384F",
"i  c #23384F",
"p  c #2E3C4E",
"a  c #233750",
"s  c #233850",
"d  c #243851",
"f  c #253A54",
"g  c #243B54",
"h  c #253C55",
"j  c #263D57",
"k  c #2B3F54",
"l  c #263E58",
"z  c #263E59",
"x  c #2D4155",
"c  c #26405B",
"v  c #27425D",
"b  c #28435F",
"n  c #28445F",
"m  c #314457",
"M  c #314458",
"N  c #30495F",
"B  c #274460",
"V  c #284560",
"C  c #274866",
"Z  c #294864",
"A  c #2B4A64",
"S  c #294966",
"D  c #294B68",
"F  c #2A4C6A",
"G  c #2B4E6C",
"H  c #344F64",
"J  c #2D526E",
"K  c #315068",
"L  c #2E5370",
"P  c #2E5471",
"I  c #345771",
"U  c #355D77",
"Y  c #385E76",
"T  c #365F7A",
"R  c #38617B",
"E  c #39637D",
"W  c #3A647E",
"Q  c #456E7E",
"!  c #3A6580",
"~  c #416E86",
"^  c #477081",
"/  c #497487",
"(  c #4A7487",
")  c #4A768A",
"_  c #4E7C8C",
"`  c #507F8B",
"'  c #4C7E94",
"]  c #52818E",
"[  c #4D8096",
"{  c #548493",
"}  c #508398",
"|  c #51869A",
" . c #578B9C",
".. c #578EA1",
"X. c #588FA2",
"o. c #5992A5",
"O. c #67A6B5",
/* pixels */
"% % % & < e V F D R ..O.O.O.O...T C D b w < & % % % % & < 5 5 5 5 < & % % % % % % % % % % % % O o # < 2 , - > > > ; % & < < & % ",
"% % & - < 0 j V A U ' X.......} ~ U J V d 3 > & % % & : 3 e e e e 3 : & % % % % % % & & & & & % O $ < 5 < > > > > - & - < < & % ",
"% & > 2 2 6 0 d V L T E E E E ~ | [ T A V j 0 > & & > 3 f n b b n f 3 > & % % % % & > < < < < : O O < 6 2 < > > > - - > 2 < & % ",
"O & < 6 6 5 2 0 d c z z z z j K ( ( K z c f 0 , & - 3 d V G F F G V d 6 > & % % & - < 2 2 2 5 > O O < 6 6 2 , - - > > , 2 < & % ",
"o % < 6 6 2 , , 2 2 2 2 2 2 2 6 y y 0 2 2 2 < - % : u A F F F F F F A j 3 > & & > < , , , , , : O O < 6 6 2 , > - - - , 2 < & % ",
"X O < 6 6 2 , - - - ; * * * * * & & * * - - > * % : u V v c c c c c v z t 3 - & < 2 , - - > > & O O < 6 6 2 < , , , , < 2 < & O ",
"X O < 6 6 2 , - > - & % % % % % % % % & - > > * % - 3 0 6 2 2 2 2 2 2 0 z s : & < 2 , - - > > & O O < 6 6 5 2 2 2 2 2 2 6 < % o ",
"X # < 6 6 2 , - - & % % % % % % % % % & - > > * % & < 2 > * * * * * ; 2 f u : % < 2 , > > > > & O O < 6 6 6 6 6 6 6 6 6 6 < O X ",
"X # < 6 6 2 , - & % % % % % % % % % & - - > > * % & < < - % % % % & * < 0 2 % % < 2 , > > > > & O O < 6 6 6 6 6 6 6 6 6 6 < O X ",
"X O : 2 6 2 < > - & & % & & & % % & > , , , , - & & < < & % % % % % * , 2 , O O < 2 , > - > > & O O < 6 6 6 6 6 6 6 6 5 2 : # o ",
"X O % - 2 6 5 2 2 < > - - - - - - > < 2 2 2 2 < & & - - & % % % % % ; , 2 < O O < 5 , > - > > & O O < 6 6 6 6 6 6 6 6 2 - & % + ",
"o o O % > < < < < > - & & & & & & - , < < < < > & % - - % % % % % % * , 2 < O O : < , , , > - & O O : 2 5 6 6 6 6 5 2 > & % % % ",
"O O O @ % & & % % O O O O O O O O O % & & & & & % % - - % % % % % % * , 2 < # o % - < 5 5 < - % o O % - 2 6 6 6 6 2 - & % % % % ",
"q q q 7 < : > : % O o X o O O $ % = : : - & % % % % - - % % % % % & - , 2 < # o O % : < < : % O o o O % : < < < < : % % & - : : ",
"] ] { ^ A j j u 2 - O o O % - 2 e j j u 3 > & % % % - - % % % % & - - , 2 < # X o O O $ $ O O o o o o O O # # # # # % & > 3 u j ",
"o.o.o.[ T D V z e < % O % - < 0 f b v f 0 < - & % & - > & % % % - > > , 2 < # X X X X X X X X X X X X X X X X X X o % > 3 z I ! ",
"W W W T P V d 0 0 < & % > < , < 2 3 3 2 < , < > & & < < & % % % - > > , 2 < # X X X X X X X X X X X X X X X X X X O - 3 f I ' o.",
"z z z z v d 0 2 2 < & & < 2 , - - * * * - , 2 < & & < < & % % % - > > , 2 < # X o O O $ % & & & & % $ O O o o X X O < e B U ) { ",
"2 2 2 2 2 2 , , , - & & < 2 , - & % % & - , 2 < & & < < & % % % - > > , 2 < # o O % - 2 9 s s s s 9 2 - % O o X X O < e V A x p ",
"* * * * * * * - - * % & < 2 , * % % % % - , 5 < & & < 2 - % % & - > > , 2 < # o % > 3 z I ! W W ! I z 0 > % O X X O < w z d < * ",
"% % % % % % % & - ; % & < 5 , * % % % % - , 5 < % % < 2 > * - - - > > , 2 < O O : 3 f I ' o.o.o.o.' I f 8 - O X X # < 0 w 0 , ; ",
"% % % % % % % & - - % & > < > - & % % & * > , - O O < 5 , > > > > - - , 2 < O $ 2 d V U ) { { { { / K f 0 < O X X # < 6 6 < > ; ",
"% % % % % % & - > - % % & - - > - - - * & % % O o # < 5 , - > > > - - , 5 < O % e A F A N m k p p y 0 2 6 < # X X # < 6 6 < - % ",
"& & & % & & * - - & % O O % & & & & & & % O o X X O : < , , , , , , , , < : O = f F A j 0 < > ; * * - , 2 < # X X O : 2 6 < - % ",
"- - - - - * & & & % O o o o O O O O O O O o X X X O % - < 5 2 2 2 2 5 < - % o = j A d 0 6 < > * & & * , 2 < # X X O % : 2 2 > - ",
"& & & & & & % + + O o X X X X X X X . . . X X X . X O % : < < < < < < : % O o = u z 0 5 2 < > & % % & > 2 < # X X o O % : > - & ",
"O O O O O O O o o o X X X X X X X X               X X o O O # # # # # O O O O & 3 0 0 2 < > & % % % % - 2 < $ X X X o o O O O O ",
"O O O O O o X X X X o O O O O $ % = 1 4 4 4 4 4 4 1 = % $ O O O o o X X X o + & < 5 2 < > & % % % % % - 2 < # X o O O # O O O O ",
"< < < : % O o X X o O % - , > 2 9 A Q ] ` _ _ ` ] Q A 9 2 > > : % O o X X o + & < 2 < > & % % % % % & > 2 < # o O % : < < < < < ",
"6 6 6 2 - % O X o O % > 0 e e d V T [ o.o.o.o.o.o.[ T V d e e 0 > % O o X o O & < 2 , * % % % % % & - , 2 < % O % - 2 6 6 6 6 6 ",
"6 6 6 6 2 : O o O % > 0 j V V V F P T W W W W W W T L F V V V j 6 > % O o o O & < 2 , * % % % % & - - , 2 < & % > 2 6 6 6 6 6 6 ",
"2 2 2 5 6 < # o % - 2 w z V v c c c z z z z z z v v v n n V F V d 0 > % O O + & < 2 , * % % % % - > > , 2 < & & < 6 2 2 2 2 2 2 ",
", , , < 5 < # O : 2 5 0 w 0 6 2 2 2 2 2 2 2 2 3 0 e e e e d V F V j 3 > % + % & < 2 , * % % % % - > > , 2 < & & < 5 < , , , , , ",
"> > - , 2 < O O < 6 6 2 < , - * * * * * * * * - , < < < < 3 d V D A d 3 - % % & < 2 , - & % % & - > > , 2 < & & < 2 , - - - - > ",
"> > - , 2 < O O < 6 6 2 - & % % % % % % % % % % & & & & & - < w V F A u : % % & < 2 , - - - - - > > > , 2 < & & < 2 , - & & - > ",
"- - - , 2 < O O < 6 6 < - % % % % % % % % % % % % % % % % & * 2 d V V u : @ % & < 2 , - > > > > > > > , 2 < & & < 2 , * % % & - ",
"% & - , 2 < O O < 6 6 2 > & % % % % % % % % % % % % % % & - - , 0 e e 3 - % % & < 2 , - > > > > > > > , 2 < & & < 2 , ; & % % % ",
"% & - , 5 < O O < 6 6 2 , - & % % % % % % % % % % % % & - > > , 2 6 6 < & % + % > < , , , > > > > > > , 2 < & & < 2 , ; & % % % ",
"- - - , 5 < O O < 6 6 2 , - - & % % % % % % % % & - - - > > > , 2 6 6 < & + O O % - < 2 2 < , > - - - , 2 < & & < 2 , * % % % % ",
"> > , , < : O O < 6 6 2 , > > - & % % % % % % & - > > > > > > , 2 6 2 > % O o o O % > 2 6 5 < , , , , , < > % % > < < > & % % & ",
"> , < < - % o O < 6 6 2 , - > - - * * * * - - - > > > > > > > , 2 2 : % O o X X o O % : 2 6 5 2 2 2 5 < - % O O % - < < > - - - ",
"& - > : % O o # < 6 6 2 < , , , , , , , , , > > > > > > > > > > < > % O o X X X X o O % : < < < < < < : % O o X O % : > - & & & ",
"O O O O O o X # < 6 6 6 2 2 2 2 2 2 2 2 2 < , > > > > > > > > - - % O o X X X X o o o O O # # # # # # O O o X X X o O O O O O O ",
"X X X X o o o # : < < < < < < < < < < < < , - & & & & & & & & & % O o X X X X X X X X X X X X X X X o o O $ % = = % $ O o o X X ",
"X X X o O O O % % & & & & & & & & & & & & % % @ O O O O O O O O O o X X . . X X X X X X X X X X X o O % : 2 e j f e 2 : % O o X ",
"o O O % & - & - : > : < 7 q q q q q q q q q q 4 : $ $ O o o X X X X o O O $ % = = = = % $ O O o X O % > 0 d A G G A d 0 > % O X ",
"O % : < < 2 < 3 u j j A ^ { { ] ] ] ] ] ] { { ^ A 9 2 : % O o X X o O % : 2 9 f f f f e 2 - % O o O : 0 j A F G J F A j 0 - O X ",
"& - < 5 2 2 2 0 f v c K ( { { { { { { { {  .o.[ T V d 6 > % O X X O % > 8 d A G G G G A d 0 > % o $ 2 t z v c c c c v f 0 < O X ",
"< < , , , , , < 2 2 2 0 y k p p p p p k M H Y T P D V j 0 - O X X O - 0 j A F G G G G F A j 0 : O % e z 0 2 2 2 2 2 2 3 6 < O X ",
"2 < , > > > > > - - - - ; ; ; ; ; ; ; > , 8 a v v V F V e < O X X O < w z n v c c c c v n z w , O = j v 2 - - - * * - , 2 < % o ",
", , > > > > > > > - > - > - - - - - - > > , < 2 0 d V V e < O X X # < 0 w 0 6 2 5 5 2 6 0 w 0 < O = j v 3 - - - & & ; , 2 < & O ",
"> - - - - - - - - - - - - - - - - - - - - - - > < 0 j z w < O X X # < 6 2 < > - > - - > < 2 2 > O % e f 2 - > - % % & > < < & % ",
"> - & % % % % % % % % % % % % % % % % % % & ; , 2 0 0 0 0 < # X X # < 5 < > > - > > > > > , , - O $ 2 0 < > > - % % % & > - & % ",
"> - % % % % % % % % % % % % % % % % % % % % ; , 2 6 6 6 6 < # X X # < 2 , - > > > > > > > > > & O O < 2 , > - & % % % % - - % % ",
"> - % % % % % % % % % % % % % % % % % % % % ; , 2 6 6 6 6 < # X X # < 5 , > > > > > > > > > > & O O < 2 , - & % % % % % - - % % ",
"> - & % % % % % % % % % % % % % % % % % % & > < 2 6 6 6 6 < # X X # < 2 , > > > > > > > > > > & O # < 2 , ; & % % % % % - - % % ",
"> > - & % % % % % % % % % % % % % % & ; * > < 2 5 6 6 6 6 < # X X # < 2 , > > > > > > > > > > & O # < 2 , * % % % % % % - - % % ",
"- - > - & % % & % % % % % % % & & - > , , < 5 6 6 6 6 5 2 > O X X # < 2 , - - > > > > > > > , : O O < 2 , - % % % % % % - - % % ",
"& & - > - - - - - - - - - - - > < 2 2 5 2 5 6 6 6 6 6 2 > % O X X $ < 5 , - - > > > > > - , < > O O < 2 , - % % % % % % - - & % ",
"% % & - - - - - - - - - - * & - > < < < < < < < < < < : % O o X X O : < , , , , , , , , , , < : O O < 2 , - % % % % % & > - & % ",
"% % % % % % % % % & % & & % O O O # # # # # # # # # # O O o o X X O % - < 5 2 2 2 2 2 2 5 < - % o # < 2 , - % % % % % & < < & % ",
"% % % % % % % % % % % % % @ O o o o o o o o o o o o X X X X X X X o O % : < < < < < < < < : % O o # < 2 , - % % % % % & < < & % ",
"% % % % % % % % % % % % % % @ + + + + + + + + + + O o X X X X X X o o O O % & & & & & & % O O o X # < 2 , - % % % % % & < < & % ",
"% % % % % % % % % % % % % % % % % % % % % % % % % @ o X X X X X X X X X X o O % % % % O o X X X X # < 2 , - % % % % % & < < & % "
};
